<svg width="36" height="36" viewBox="0 0 36 36" fill="none" xmlns="http://www.w3.org/2000/svg">
<path d="M0 4.5C0 2.01472 2.01472 0 4.5 0H31.5C33.9853 0 36 2.01472 36 4.5V31.5C36 33.9853 33.9853 36 31.5 36H4.5C2.01472 36 0 33.9853 0 31.5V4.5Z" fill="#97AB94"/>
<path d="M25.9906 26.2582C26.7216 22.4206 28.1614 14.0951 28.4936 10.6694C28.5158 10.3659 28.4715 9.97565 28.4936 9.84557C28.4715 9.67212 28.405 9.43362 28.1835 9.26017C27.9177 9.04336 27.4969 9 27.3197 9C26.478 9 25.2154 9.43362 19.0577 11.9486C16.9091 12.8159 12.612 14.6371 6.14417 17.3906C5.10312 17.8025 4.54936 18.1928 4.50506 18.5831C4.41646 19.3419 5.50182 19.5804 6.89727 20.014C8.02693 20.3826 9.53313 20.7945 10.3305 20.8162C11.0393 20.8379 11.8367 20.5344 12.7227 19.949C18.7697 15.9597 21.8707 13.9433 22.0701 13.8999C22.2251 13.8783 22.4023 13.8349 22.5352 13.9433C22.5847 13.9946 22.6207 14.057 22.64 14.125C22.6593 14.193 22.6614 14.2646 22.646 14.3336C22.5352 14.7889 16.8648 19.8406 16.5326 20.1658C15.27 21.4233 13.8524 22.2038 16.0453 23.6131C17.928 24.8272 19.0355 25.6078 20.9847 26.8653C22.2251 27.6675 23.1997 28.5998 24.4844 28.4914C25.0603 28.4263 25.6805 27.8843 25.9906 26.2582Z" fill="white"/>
</svg>
